# xmcd
# 
# Track frame offsets:
#     150
#     14385
#     32412
#     50387
#     72137
#     90590
#     110512
#     129747
#     146945
#     163605
#     181922
#     208942
#     225780
#     241540
#     285095
# 
# Disc length: 4174
# 
# Revision: 2
# Processed by: cddbd v1.5.2PL0 Copyright (c) Steve Scherf et al.
# Submitted via: BonkEnc v1.0.15
# 
DISCID=be104c0f
DTITLE=Various Artist - YOUR SONGII Disc 3
DYEAR=2001
DGENRE=Rock
TTITLE0=Diana Ross and Marvin Gaye - You are Everything
TTITLE1=Kool and Gang - Cherish
TTITLE2=The Jackson5 - I'll be there
TTITLE3=Black - Wonderful life
TTITLE4=Michael Sembello - Maniac
TTITLE5=Level42 - Something About you
TTITLE6=Captain and Tennille - Do that to me one more time
TTITLE7=DeBarge - Rhythm of the night
TTITLE8=The Righteous Brothers - You've lost that lovin' feelin'
TTITLE9=The Style Council - My ever changing moods
TTITLE10=Robert Palmer - Addicted to love
TTITLE11=Village People - In the Navy
TTITLE12=The Rubettes - Suger baby love
TTITLE13=Chuck Mangione - Feels so good
TTITLE14=Band Aid - Do they know it's Christmas？
EXTD=
EXTT0=
EXTT1=
EXTT2=
EXTT3=
EXTT4=
EXTT5=
EXTT6=
EXTT7=
EXTT8=
EXTT9=
EXTT10=
EXTT11=
EXTT12=
EXTT13=
EXTT14=
PLAYORDER=
